/* XPM */
static char * blue_xpm[] = {
"15 15 4 1",
" 	c None",
".	c #FFFFFF",
"+	c #000000",
"@	c #0000FF",
"               ",
"               ",
"      +++      ",
"    ++@@@++    ",
"   +@@@@@@@+   ",
"   +@@@@@@@+   ",
"  +@@@@@@@@@+  ",
"  +@@@@@@@@@+  ",
"  +@@@@@@@@@+  ",
"   +@@@@@@@+   ",
"   +@@@@@@@+   ",
"    ++@@@++    ",
"      +++      ",
"               ",
"               "};
